<svg width="38" height="41" viewBox="0 0 38 41" fill="none" xmlns="http://www.w3.org/2000/svg">
<path d="M18.993 34H24.6355L15.8113 8.63477H9.57108L0.764442 34H6.21366L8.14725 27.8477H17.0594L18.993 34ZM12.5418 13.4863H12.6648L15.9168 23.875H9.28983L12.5418 13.4863Z" fill="#7879F1"/>
<path d="M18.3824 8.33477V33.7H23.691V25.702H28.4371C33.7808 25.702 37.4898 22.2215 37.4898 17.0184C37.4898 11.7977 33.9039 8.33477 28.7007 8.33477H18.3824ZM23.691 12.5359H27.2945C30.3355 12.5359 32.0933 14.1531 32.0933 17.0359C32.0933 19.9363 30.3179 21.5535 27.2769 21.5535H23.691V12.5359Z" fill="#657081"/>
</svg>
