<svg width="38" height="30" viewBox="0 0 38 30" fill="none" xmlns="http://www.w3.org/2000/svg">
<path fill-rule="evenodd" clip-rule="evenodd" d="M28 0.226501L38 6L28 11.7735V7H19.4748C17.8354 7 16.7848 7.80806 16.4487 8.81626C16.274 9.34021 15.7077 9.62337 15.1838 9.44872C14.6598 9.27407 14.3767 8.70775 14.5513 8.18381C15.2153 6.19201 17.1646 5 19.4748 5H28V0.226501ZM6 7.00004L1 7.00004C0.447718 7.00004 2.92063e-06 6.55232 2.86102e-06 6.00004C2.80142e-06 5.44775 0.447718 5.00004 1 5.00004L6 5.00004C8.58297 5.00004 10.6198 6.16288 11.9837 7.95745C13.3288 9.72743 14 12.0776 14 14.5C14 16.6665 14.3654 18.8507 15.2481 20.4556C16.0973 21.9995 17.4069 23 19.4751 23L28.0003 23L28.0003 18.2265L38.0003 24L28.0003 29.7735L28.0003 25L19.4751 25C16.5682 25 14.6403 23.5005 13.4957 21.4195C12.3846 19.3994 12 16.8335 12 14.5C12 12.4224 11.4212 10.5226 10.3913 9.16762C9.38021 7.83719 7.91704 7.00004 6 7.00004ZM11.4472 20.1056C11.9412 20.3526 12.1414 20.9533 11.8944 21.4472C11.3338 22.5686 10.5961 23.4805 9.5866 24.1017C8.57829 24.7222 7.38439 25 6 25H1C0.447715 25 0 24.5523 0 24C0 23.4478 0.447715 23 1 23H6C7.11561 23 7.92171 22.7779 8.5384 22.3984C9.15393 22.0196 9.66625 21.4315 10.1056 20.5528C10.3526 20.0588 10.9532 19.8586 11.4472 20.1056Z" fill="#657081"/>
</svg>
