<svg width="32" height="36" viewBox="0 0 32 36" fill="none" xmlns="http://www.w3.org/2000/svg">
<path d="M26.5687 11.7313C29.5683 11.7313 32 9.29962 32 6.30003C32 3.30043 29.5683 0.868774 26.5687 0.868774C23.5691 0.868774 21.1375 3.30043 21.1375 6.30003C21.1375 6.98961 21.266 7.64918 21.5003 8.25608L10.0885 14.7772C9.09359 13.5231 7.55633 12.7188 5.83122 12.7188C2.83162 12.7188 0.399963 15.1505 0.399963 18.1501C0.399963 21.1497 2.83162 23.5813 5.83122 23.5813C7.23923 23.5813 8.5221 23.0455 9.48708 22.1667L21.2512 28.8891C21.1766 29.2477 21.1375 29.6193 21.1375 30C21.1375 32.9996 23.5691 35.4313 26.5687 35.4313C29.5683 35.4313 32 32.9996 32 30C32 27.0004 29.5683 24.5688 26.5687 24.5688C24.6667 24.5688 22.9931 25.5464 22.023 27.0266L10.7013 20.5571C11.0606 19.8316 11.2625 19.0144 11.2625 18.1501C11.2625 17.5921 11.1783 17.0538 11.0221 16.5472L22.5537 9.95768C23.547 11.0474 24.978 11.7313 26.5687 11.7313Z" fill="#657081"/>
</svg>
