<svg width="38" height="30" viewBox="0 0 38 30" fill="none" xmlns="http://www.w3.org/2000/svg">
<path fill-rule="evenodd" clip-rule="evenodd" d="M22.0345 0.226501L32.0345 6L22.0345 11.7735V7H9.03771C7.37092 7 5.63143 8.05429 4.26223 10.0235C2.90408 11.9767 2 14.7225 2 17.7931C2 18.3454 1.55228 18.7931 1 18.7931C0.447715 18.7931 0 18.3454 0 17.7931C0 14.3465 1.01122 11.1957 2.62016 8.88171C4.21804 6.58365 6.4974 5 9.03771 5H22.0345V0.226501ZM37 11.2069C37.5523 11.2069 38 11.6546 38 12.2069C38 15.6491 37.0104 18.7972 35.434 21.1105C33.8699 23.4059 31.6306 25 29.123 25L16.5862 25V29.7735L6.58621 24L16.5862 18.2265V23L29.123 23C30.7384 23 32.4376 21.9562 33.7812 19.9843C35.1126 18.0304 36 15.2819 36 12.2069C36 11.6546 36.4477 11.2069 37 11.2069Z" fill="#657081"/>
</svg>
